<?xml version="1.0" encoding="UTF-8" standalone="no"?>
<svg
   viewBox="0 0 32 32"
   version="1.1"
   id="svg4"
   sodipodi:docname="floor-heating.svg"
   inkscape:version="1.1 (c68e22c387, 2021-05-23)"
   xmlns:inkscape="http://www.inkscape.org/namespaces/inkscape"
   xmlns:sodipodi="http://sodipodi.sourceforge.net/DTD/sodipodi-0.dtd"
   xmlns="http://www.w3.org/2000/svg"
   xmlns:svg="http://www.w3.org/2000/svg">
  <sodipodi:namedview
     id="namedview5"
     pagecolor="#ffffff"
     bordercolor="#666666"
     borderopacity="1.0"
     inkscape:pageshadow="2"
     inkscape:pageopacity="0.0"
     inkscape:pagecheckerboard="0"
     showgrid="false"
     inkscape:zoom="12.875"
     inkscape:cx="-1.5145631"
     inkscape:cy="21.087379"
     inkscape:window-width="1920"
     inkscape:window-height="1009"
     inkscape:window-x="-8"
     inkscape:window-y="-8"
     inkscape:window-maximized="1"
     inkscape:current-layer="svg4" />
  <defs
     id="defs8" />
  <path
     d="m 26.479012,19.150684 a 1.5890447,1.6864655 0 0 1 1.588328,1.688345 v 0.352706 c 0,0.931229 -0.71406,1.688345 -1.589385,1.688345 H 5.569696 c -1.8541998,0 -3.3569632,1.598323 -3.3569632,3.566893 H 3.9802793 V 26.268411 H 2.2127328 c 0,1.969724 1.5056246,3.566531 3.3608495,3.566531 H 28.932068 a 0.8838044,0.9379885 0 1 0 0,-1.875977 H 5.5735823 A 1.593985,1.6917086 0 0 1 3.9802793,26.268411 H 2.2127328 v 0.178562 H 3.9802793 A 1.5918722,1.6894663 0 0 1 5.569696,24.75599 h 20.908259 c 1.851377,0 3.356996,-1.596772 3.356996,-3.564255 v -0.352706 c 0,-1.968637 -1.50245,-3.56432 -3.355939,-3.56432 H 3.0480662 a 0.88380406,0.93798802 0 0 0 0,1.875975 H 26.479044 Z M 5.1037658,4.05655 a 2.2321752,2.3690252 0 0 1 0.4058409,0.3406705 c 0.7133819,0.7556332 0.8526721,1.8391747 -0.05553,3.5808081 -1.3044658,2.5025104 -1.2902972,4.4752354 -0.3761392,5.8439154 0.2545328,0.381197 0.5221391,0.631448 0.7367446,0.771759 a 0.88388437,0.93807334 0 0 0 0.9268978,-1.597564 c 0.01132,0.0076 -0.00125,-0.0018 -0.028991,-0.02853 A 1.2648849,1.3424322 0 0 1 6.5199509,12.736884 C 6.0186532,11.986494 6.0101756,10.786286 7.0007045,8.8863369 8.2888947,6.4153187 8.0322484,4.4193457 6.7585422,3.069395 A 3.9943767,4.239263 0 0 0 6.0303064,2.4593482 2.9377272,3.1178325 0 0 0 5.6545387,2.2473821 0.88377268,0.93795491 0 0 0 4.9644623,3.9739782 1.4140549,1.5007476 0 0 1 5.1037534,4.0565165 Z m 9.8984132,0 a 2.2321752,2.3690252 0 0 1 0.40581,0.3406705 c 0.713382,0.7556332 0.852703,1.8391747 -0.05547,3.5808081 -1.304465,2.5025104 -1.290328,4.4752354 -0.37614,5.8439154 0.254534,0.381197 0.522147,0.631448 0.736745,0.771759 a 0.8838716,0.93805987 0 0 0 0.926899,-1.597532 c 0.01132,0.0076 -0.0013,-0.0018 -0.02899,-0.02853 A 1.2648849,1.3424322 0 0 1 16.418399,12.736917 C 15.917074,11.986528 15.908591,10.786319 16.899152,8.8863697 18.187342,6.415351 17.930694,4.4193778 16.656987,3.0694272 a 3.9943767,4.239263 0 0 0 -0.728235,-0.6100468 2.9377272,3.1178325 0 0 0 -0.375794,-0.2119662 0.88377268,0.93795491 0 1 0 -0.69005,1.7265969 1.4140549,1.5007476 0 0 1 0.139291,0.082537 z m 10.605428,0 a 2.2321752,2.3690252 0 0 1 0.405847,0.3406705 c 0.713381,0.7556332 0.852671,1.8391747 -0.05547,3.5808081 -1.304472,2.5025104 -1.290367,4.4752354 -0.376146,5.8439154 0.254533,0.381197 0.522146,0.631448 0.736688,0.771759 a 0.88387954,0.93806829 0 0 0 0.92693,-1.597532 c 0.01132,0.0076 -0.0013,-0.0018 -0.02899,-0.02853 a 1.2648849,1.3424322 0 0 1 -0.192637,-0.230729 c -0.501292,-0.75039 -0.509776,-1.950599 0.48076,-3.8505481 1.288183,-2.4710187 1.031544,-4.4669918 -0.242139,-5.8169425 a 3.9943767,4.239263 0 0 0 -0.72826,-0.6100467 2.9377272,3.1178325 0 0 0 -0.375768,-0.2119663 0.88377268,0.93795491 0 1 0 -0.690083,1.726597 1.4140549,1.5007476 0 0 1 0.139291,0.082536 z"
     id="path2"
     style="stroke-width:1.25773" />
</svg>
